<?xml version="1.0" encoding="utf-8"?>
<!-- Generator: Adobe Illustrator 16.0.0, SVG Export Plug-In . SVG Version: 6.00 Build 0)  -->
<!DOCTYPE svg PUBLIC "-//W3C//DTD SVG 1.1//EN" "http://www.w3.org/Graphics/SVG/1.1/DTD/svg11.dtd">
<svg version="1.1" id="Layer_1" xmlns="http://www.w3.org/2000/svg" xmlns:xlink="http://www.w3.org/1999/xlink" x="0px" y="0px"
	 width="19.109px" height="21.616px" viewBox="0 0 19.109 21.616" enable-background="new 0 0 19.109 21.616" xml:space="preserve">
<polygon fill="#544587" points="14.801,0 14.801,17.015 6.699,0 0,0 0,21.616 4.368,21.616 4.368,3.679 12.738,21.616 
	19.109,21.616 19.109,0 "/>
<g>
	<defs>
		<rect id="SVGID_1_" x="-86.335" y="0.001" width="276.701" height="51.676"/>
	</defs>
	<clipPath id="SVGID_2_">
		<use xlink:href="#SVGID_1_"  overflow="visible"/>
	</clipPath>
	<path clip-path="url(#SVGID_2_)" fill="#544587" d="M29.186,19.076c1.941,0,3.258-1.164,3.258-5.17
		c0-2.005-0.392-4.784-3.319-4.784c-3.227,0-3.262,3.738-3.262,5.111C25.864,17.615,27.002,19.076,29.186,19.076 M29.125,6.157
		c5.471,0,7.833,3.71,7.833,7.928c0,4.248-2.451,8.075-7.926,8.075c-4.304,0-7.715-2.661-7.715-7.96
		C21.318,10.554,23.174,6.157,29.125,6.157"/>
	<path clip-path="url(#SVGID_2_)" fill="#544587" d="M39.231,10.228c0-0.719-0.12-2.902-0.21-3.766h4.155l0.089,2.897
		c0.572-1.284,1.557-3.109,5.144-2.927v3.974c-4.483-0.417-4.752,1.884-4.752,3.77v7.442h-4.425V10.228z"/>
	<path clip-path="url(#SVGID_2_)" fill="#544587" d="M60.854,21.411c-1.432,0.393-2.719,0.479-3.439,0.479
		c-4.454,0-4.454-2.813-4.454-4.07V9.537h-2.899V6.61h2.899V3.651l4.393-1.62V6.61h3.591v2.926h-3.591v6.824
		c0.034,1.372,0.034,2.237,2.008,2.237c0.656,0,0.952-0.026,1.492-0.09V21.411z"/>
	<path clip-path="url(#SVGID_2_)" fill="#544587" d="M63.576,0.033h4.393v8.549c0.509-0.719,1.617-2.271,4.367-2.271
		c2.243,0,3.68,1.104,4.396,2.035c0.541,0.747,0.989,2.122,0.989,4.094v9.179h-4.396v-9.028c0-0.869,0-3.292-2.484-3.292
		c-1.254,0-2.837,0.721-2.837,3.076l0.027,9.243h-4.453V0.033z"/>
</g>
<polygon fill="#544587" points="83.577,6.518 86.359,17.913 89.56,6.518 94.437,6.518 97.603,17.913 100.562,6.518 104.959,6.518 
	99.787,21.618 94.976,21.618 91.863,10.433 88.694,21.618 83.821,21.618 78.887,6.518 "/>
<g>
	<defs>
		<rect id="SVGID_3_" x="-86.335" y="0.001" width="276.701" height="51.676"/>
	</defs>
	<clipPath id="SVGID_4_">
		<use xlink:href="#SVGID_3_"  overflow="visible"/>
	</clipPath>
	<path clip-path="url(#SVGID_4_)" fill="#544587" d="M115.072,12.412c0-0.69-0.059-3.376-2.63-3.376
		c-1.944,0-2.751,1.608-2.841,3.376H115.072z M109.448,15.189c0,0.985,0,4.042,3.084,4.042c1.103,0,2.209-0.423,2.631-2.095h4.034
		c-0.059,0.718-0.208,2.004-1.434,3.29c-1.108,1.164-3.082,1.766-5.292,1.766c-1.284,0-3.74-0.243-5.325-1.888
		c-1.371-1.435-1.942-3.468-1.942-5.887c0-2.456,0.598-5.38,3.139-7.146c1.165-0.777,2.603-1.258,4.248-1.258
		c2.15,0,4.722,0.836,6.099,3.646c1.017,2.064,0.958,4.278,0.898,5.532H109.448z"/>
	<path clip-path="url(#SVGID_4_)" fill="#544587" d="M125.597,17.257c0.057,0.956,0.658,2.062,2.513,2.062
		c1.584,0,2.328-0.899,2.328-1.797c0-0.687-0.359-1.226-2.09-1.7l-2.751-0.752c-1.227-0.357-3.827-1.107-3.827-4.185
		c0-2.93,2.689-4.729,6.605-4.729c3.112,0,5.62,1.438,5.747,4.46h-4.043c-0.117-1.677-1.465-1.799-2.152-1.799
		c-1.191,0-2.093,0.57-2.093,1.493c0,1.022,0.749,1.229,2.066,1.588l2.718,0.75c2.753,0.75,4.041,2.148,4.041,4.213
		c0,2.604-2.246,5.207-6.938,5.207c-1.944,0-3.799-0.421-5.175-1.858c-0.986-1.042-1.078-2.238-1.104-2.956H125.597z"/>
	<path clip-path="url(#SVGID_4_)" fill="#544587" d="M146.346,21.411c-1.432,0.393-2.719,0.479-3.44,0.479
		c-4.453,0-4.453-2.813-4.453-4.07V9.537h-2.899V6.61h2.899V3.651l4.396-1.62V6.61h3.591v2.926h-3.591v6.824
		c0.031,1.372,0.031,2.237,2.004,2.237c0.656,0,0.955-0.026,1.492-0.09V21.411z"/>
	<path clip-path="url(#SVGID_4_)" fill="#544587" d="M157.686,12.412c0-0.69-0.059-3.376-2.63-3.376
		c-1.944,0-2.755,1.608-2.84,3.376H157.686z M152.062,15.189c0,0.985,0,4.042,3.083,4.042c1.108,0,2.211-0.423,2.636-2.095h4.034
		c-0.062,0.718-0.212,2.004-1.437,3.29c-1.104,1.164-3.079,1.766-5.295,1.766c-1.284,0-3.733-0.243-5.317-1.888
		c-1.375-1.435-1.946-3.468-1.946-5.887c0-2.456,0.598-5.38,3.139-7.146c1.165-0.777,2.602-1.258,4.247-1.258
		c2.151,0,4.723,0.836,6.099,3.646c1.014,2.064,0.958,4.278,0.895,5.532H152.062z"/>
	<path clip-path="url(#SVGID_4_)" fill="#544587" d="M164.832,10.228c0-0.719-0.116-2.902-0.208-3.766h4.153l0.091,2.897
		c0.567-1.284,1.556-3.109,5.146-2.927v3.974c-4.486-0.417-4.754,1.884-4.754,3.77v7.442h-4.427V10.228z"/>
	<path clip-path="url(#SVGID_4_)" fill="#544587" d="M176.162,9.212c0-0.062,0-1.707-0.089-2.752h4.241l0.122,2.271
		c0.418-0.687,1.617-2.629,4.904-2.629c2.963,0,4.219,1.792,4.606,2.839c0.331,0.927,0.421,1.703,0.421,4.513v8.165h-4.519v-9.393
		c0-0.625,0-1.162-0.238-1.639c-0.329-0.657-1.016-1.288-2.15-1.288c-0.96,0-1.825,0.448-2.303,1.166
		c-0.269,0.384-0.541,1.137-0.541,2.302v8.852h-4.453V9.212z"/>
</g>
<polygon fill="#544587" points="19.496,29.636 11.215,48.446 3.11,29.636 0,29.636 0,51.228 1.94,51.228 1.94,31.372 2.003,31.372 
	10.259,51.228 12.2,51.228 20.454,31.284 20.514,31.284 20.514,51.228 22.455,51.228 22.455,29.636 "/>
<g>
	<defs>
		<rect id="SVGID_5_" x="-86.335" y="0.001" width="276.701" height="51.676"/>
	</defs>
	<clipPath id="SVGID_6_">
		<use xlink:href="#SVGID_5_"  overflow="visible"/>
	</clipPath>
	<path clip-path="url(#SVGID_6_)" fill="#544587" d="M37.076,42.491c-0.206-2.899-1.765-5.076-4.874-5.076
		c-2.93,0-4.485,2.447-4.72,5.076H37.076z M27.421,44.135c0.061,3.202,1.522,5.894,5.198,5.894c2.124,0,3.888-1.525,4.34-3.588
		h1.885c-0.928,3.588-3.17,5.236-6.792,5.236c-4.485,0-6.576-3.86-6.576-7.955c0-4.068,2.24-7.953,6.699-7.953
		c5.021,0,6.846,3.678,6.846,8.366H27.421z"/>
	<path clip-path="url(#SVGID_6_)" fill="#544587" d="M48.05,37.415c-3.408,0-4.515,3.166-4.515,6.037
		c0,2.781,0.812,6.576,4.246,6.576c3.919,0,5.113-3.258,5.113-6.665C52.894,40.308,51.55,37.415,48.05,37.415 M52.954,49.016
		l-0.06-0.117c-1.224,1.789-3.048,2.778-5.143,2.778c-4.453,0-6.158-4.252-6.158-8.015c0-3.892,1.705-7.894,6.158-7.894
		c2.003,0,4.097,0.953,5.143,2.717l0.06-0.057v-8.793h1.798v18.213c0,1.167,0.089,2.362,0.149,3.379h-1.858L52.954,49.016z"/>
</g>
<path fill="#544587" d="M58.967,51.225h1.791V36.213h-1.791V51.225z M58.816,31.877h2.093v-2.241h-2.093V31.877z"/>
<g>
	<defs>
		<rect id="SVGID_7_" x="-86.335" y="0.001" width="276.701" height="51.676"/>
	</defs>
	<clipPath id="SVGID_8_">
		<use xlink:href="#SVGID_7_"  overflow="visible"/>
	</clipPath>
	<path clip-path="url(#SVGID_8_)" fill="#544587" d="M74.812,40.819c-0.149-2.301-1.618-3.404-4.097-3.404
		c-2.75,0-4.456,2.867-4.456,6.275c0,3.439,1.706,6.338,4.456,6.338c2.333,0,3.948-1.433,4.097-3.496h1.946
		c-0.482,3.437-2.456,5.145-5.864,5.145c-4.482,0-6.579-3.86-6.579-7.955c0-4.068,2.243-7.953,6.698-7.953
		c3.081,0,5.592,1.854,5.745,5.051H74.812z"/>
</g>
<path fill="#544587" d="M80.013,51.225h1.793V36.213h-1.793V51.225z M79.863,31.877h2.092v-2.241h-2.092V31.877z"/>
<g>
	<defs>
		<rect id="SVGID_9_" x="-86.335" y="0.001" width="276.701" height="51.676"/>
	</defs>
	<clipPath id="SVGID_10_">
		<use xlink:href="#SVGID_9_"  overflow="visible"/>
	</clipPath>
	<path clip-path="url(#SVGID_10_)" fill="#544587" d="M88.116,51.228h-1.791V39.592c0-1.163-0.092-2.364-0.149-3.375h1.848
		l0.092,2.212l0.061,0.057c1.046-1.853,2.75-2.717,4.695-2.717c4.903,0,5.291,4.332,5.291,6.068v9.391h-1.794v-9.689
		c0-2.604-1.494-4.123-3.945-4.123c-2.962,0-4.308,2.477-4.308,5.169V51.228z"/>
	<path clip-path="url(#SVGID_10_)" fill="#544587" d="M112.604,42.491c-0.208-2.899-1.765-5.076-4.874-5.076
		c-2.929,0-4.485,2.447-4.724,5.076H112.604z M102.945,44.135c0.061,3.202,1.526,5.894,5.206,5.894c2.124,0,3.886-1.525,4.333-3.588
		h1.889c-0.934,3.588-3.173,5.236-6.792,5.236c-4.482,0-6.581-3.86-6.581-7.955c0-4.068,2.245-7.953,6.707-7.953
		c5.018,0,6.842,3.678,6.842,8.366H102.945z"/>
</g>
<polygon fill="#544587" points="-86.335,0.048 -86.335,51.278 -80.768,51.278 -80.768,7.77 -57.334,51.278 -44.318,51.278 
	-71.385,0.048 "/>
<polygon fill="#544587" points="-25.739,0.046 -39.286,24.413 -52.176,0.046 -65.351,0.046 -42.888,42.484 -25.739,11.551 
	-25.761,51.278 -14.233,51.278 -14.233,0.046 "/>
<g>
	<defs>
		<rect id="SVGID_11_" x="-86.335" y="0.001" width="276.701" height="51.676"/>
	</defs>
	<clipPath id="SVGID_12_">
		<use xlink:href="#SVGID_11_"  overflow="visible"/>
	</clipPath>
	<path clip-path="url(#SVGID_12_)" fill="#544587" d="M117.32,36.416c-1.163,0-2.101-0.943-2.101-2.106
		c0-1.145,0.938-2.084,2.101-2.084c1.158,0,2.088,0.939,2.088,2.084C119.408,35.473,118.478,36.416,117.32,36.416 M117.32,31.874
		c-1.357,0-2.454,1.096-2.454,2.437c0,1.363,1.097,2.455,2.454,2.455c1.352,0,2.438-1.092,2.438-2.455
		C119.758,32.97,118.671,31.874,117.32,31.874"/>
	<path clip-path="url(#SVGID_12_)" fill="#544587" d="M117.409,34.207h-0.694v-1h0.826c0.31,0,0.444,0.204,0.444,0.488
		C117.985,34.114,117.718,34.207,117.409,34.207 M118.261,34.961c-0.027-0.281-0.082-0.526-0.377-0.587v-0.011
		c0.306-0.095,0.436-0.384,0.436-0.729c0-0.459-0.29-0.758-0.757-0.758h-1.176v2.881h0.329v-1.23h0.812
		c0.32,0,0.38,0.239,0.419,0.523c0.05,0.281-0.003,0.59,0.091,0.708h0.37C118.268,35.559,118.279,35.246,118.261,34.961"/>
</g>
<g>
	<g>
		<defs>
			<rect id="SVGID_13_" x="291.702" y="-23.187" width="96.312" height="98.05"/>
		</defs>
		<clipPath id="SVGID_14_">
			<use xlink:href="#SVGID_13_"  overflow="visible"/>
		</clipPath>
		<g clip-path="url(#SVGID_14_)">
			<defs>
				<rect id="SVGID_15_" x="291.702" y="-23.187" width="96.312" height="98.05"/>
			</defs>
			<clipPath id="SVGID_16_">
				<use xlink:href="#SVGID_15_"  overflow="visible"/>
			</clipPath>
			<path clip-path="url(#SVGID_16_)" fill="#A18993" d="M359.82-2.395c-0.275,0.576-0.942,0.842-1.541,0.634l-0.458-0.159
				c-0.066-0.017-0.192-0.067-0.342-0.117c-0.25-0.092-0.509-0.191-0.833-0.258l-2.264-0.566c-0.441-0.109-0.983-0.183-1.558-0.266
				c-0.433-0.066-0.883-0.133-1.357-0.216c-0.343-0.076-0.725-0.093-1.133-0.117c-0.166-0.008-0.333-0.016-0.5-0.025l-1.873-0.125
				l-3.148,0.1c-0.148,0.016-0.357,0.042-0.573,0.074c-0.15,0.017-0.301,0.042-0.45,0.059c-3.031,0.266-6.287,1.166-9.443,2.589
				c-3.422,1.549-6.611,3.789-9.217,6.479c-2.989,3.089-5.263,6.679-6.57,10.392c-0.092,0.334-0.225,0.725-0.366,1.116
				c-0.226,0.65-0.434,1.266-0.541,1.891l-0.399,1.715c-0.059,0.282-0.092,0.591-0.134,0.907c-0.025,0.226-0.05,0.45-0.083,0.675
				c-0.018,0.175-0.051,0.408-0.084,0.641c-0.041,0.325-0.092,0.633-0.099,0.916l-0.043,1.707c-0.065,0.724-0.018,1.407,0.043,2.131
				c0.033,0.416,0.065,0.833,0.073,1.249c0.009,0.333,0.067,0.666,0.134,1.024c0.033,0.183,0.067,0.367,0.092,0.55l0.266,1.64
				l0.55,2.04c0.101,0.392,0.192,0.758,0.324,1.066c0.126,0.317,0.226,0.583,0.326,0.858c0.299,0.808,0.574,1.564,0.966,2.265
				c0.125,0.25,0.225,0.467,0.324,0.675c0.143,0.3,0.275,0.591,0.441,0.874l0.898,1.457c2.166,3.58,5.438,6.777,9.485,9.276
				l0.684,0.433l2.265,1.133c0.266,0.134,0.558,0.241,0.856,0.351c0.218,0.082,0.434,0.166,0.65,0.249
				c0.158,0.059,0.374,0.149,0.591,0.242c0.3,0.116,0.575,0.24,0.833,0.299c2.548,0.749,4.563,1.158,6.387,1.291
				c4.256,0.375,8.369-0.125,12.249-1.449c3.539-1.19,6.937-3.114,9.809-5.562c2.44-2.074,4.588-4.572,6.396-7.437l1.115-1.898
				c0.158-0.309,0.325-0.675,0.492-1.041c0.116-0.259,0.232-0.517,0.357-0.766l0.417-0.891c0.066-0.142,0.116-0.292,0.167-0.433
				c0.041-0.125,0.083-0.25,0.124-0.375l0.591-1.648c0.466-1.557,1.033-3.581,1.175-4.863l0.324-1.957
				c0.101-0.625,0.667-1.075,1.299-1.042c0.633,0.034,1.142,0.542,1.175,1.174l0.116,1.907c0.126,1.408,0.051,3.381-0.207,5.671
				l-0.317,1.907c-0.025,0.132-0.042,0.241-0.058,0.341c-0.043,0.258-0.084,0.525-0.158,0.783l-0.275,1.024
				c-0.075,0.241-0.133,0.474-0.2,0.708c-0.133,0.491-0.274,0.999-0.441,1.506l-0.915,2.341c-1.623,3.722-3.789,7.036-6.454,9.9
				c-3.205,3.455-7.203,6.295-11.565,8.21c-4.473,1.974-9.485,3.015-14.498,3.015c-0.406,0-0.824-0.008-1.24-0.024
				c-2.481-0.017-5.188-0.425-8.476-1.267c-0.485-0.108-0.967-0.283-1.434-0.44c-0.216-0.084-0.433-0.159-0.648-0.233
				c-0.268-0.091-0.492-0.166-0.709-0.242c-0.466-0.158-0.94-0.315-1.424-0.524l-2.956-1.374c-0.033-0.016-0.066-0.041-0.101-0.058
				l-0.933-0.55c-5.395-3.072-9.893-7.345-12.997-12.357l-1.149-1.907c-0.274-0.491-0.491-0.957-0.707-1.407
				c-0.101-0.217-0.209-0.44-0.317-0.657c-0.6-1.142-1.033-2.356-1.449-3.53l-0.241-0.675c-0.233-0.583-0.391-1.2-0.541-1.798
				l-0.633-2.549c-0.009-0.041-0.017-0.083-0.025-0.125l-0.309-2.157c-0.024-0.208-0.049-0.392-0.074-0.575
				c-0.083-0.558-0.167-1.141-0.167-1.765c-0.008-0.367-0.024-0.774-0.05-1.183c-0.05-1.048-0.1-2.131,0.025-3.247l0.142-2.074
				c0.042-0.541,0.133-1.041,0.217-1.515c0.04-0.233,0.083-0.458,0.116-0.691c0.058-0.267,0.092-0.5,0.133-0.733
				c0.075-0.474,0.158-0.957,0.275-1.449l0.565-2.04c0.242-1.016,0.634-1.99,1.017-2.931c0.142-0.35,0.29-0.7,0.424-1.058
				c2.049-4.888,5.33-9.36,9.502-12.981c3.614-3.124,7.886-5.521,12.357-6.945c3.431-1.075,6.819-1.624,10.075-1.624
				c0.558,0,1.1,0.016,1.64,0.05l0.384,0.008c0.291,0,0.583,0.009,0.865,0.025l3.498,0.458c0.042,0.008,0.083,0.016,0.125,0.025
				l2.465,0.591c0.508,0.116,1.024,0.241,1.54,0.449c0.316,0.118,0.657,0.243,0.991,0.35c0.724,0.258,1.399,0.491,2.023,0.792
				l2.065,1.007c0.457,0.208,0.823,0.45,1.09,0.624c0.084,0.05,0.159,0.1,0.226,0.142l0.467,0.291
				C359.895-3.652,360.093-2.969,359.82-2.395"/>
			<path clip-path="url(#SVGID_16_)" fill="#D3D3CF" d="M372.568,58.917c0.433,0.475,0.433,1.191,0.009,1.665l-0.459,0.526
				c-0.342,0.391-0.824,0.923-1.54,1.548l-2.44,2.206c-0.024,0.025-0.049,0.05-0.083,0.067l-0.167,0.124
				c-1.016,0.775-2.164,1.641-3.514,2.564l-3.639,2.141c-0.357,0.184-0.691,0.342-1.032,0.491l-0.425,0.2
				c-0.99,0.449-1.965,0.899-2.998,1.332c-1.132,0.399-2.239,0.766-3.396,1.141c-4.38,1.29-8.869,1.94-13.374,1.94
				c-1.058,0-2.131-0.042-3.181-0.117c-6.636-0.44-13.29-2.39-19.243-5.645c-6.795-3.724-12.606-8.969-16.804-15.164l-0.417-0.649
				c-0.94-1.44-1.915-2.923-2.69-4.563l-0.291-0.591c-0.357-0.699-0.707-1.399-1.032-2.115l-1.657-4.288
				c-0.133-0.433-0.241-0.809-0.35-1.183l-0.906-3.331c-0.191-0.807-0.316-1.573-0.442-2.314l-0.134-0.815
				c-0.049-0.326-0.1-0.617-0.148-0.9c-0.117-0.75-0.251-1.516-0.275-2.324l-0.076-1.049c-0.115-1.698-0.232-3.464-0.106-5.246
				c0.041-1.008,0.083-2.057,0.149-3.106c0.008-0.025,0.008-0.058,0.016-0.083l0.676-4.671c0.074-0.408,0.166-0.783,0.257-1.165
				l0.899-3.522c0.234-0.808,0.509-1.557,0.775-2.282c0.092-0.266,0.191-0.533,0.291-0.808l0.175-0.482
				c0.315-0.85,0.633-1.725,1.075-2.582l1.356-2.815c0.357-0.708,0.758-1.366,1.149-2.006c0.166-0.258,0.324-0.525,0.483-0.792
				c0.966-1.682,2.139-3.214,3.271-4.696l0.425-0.55c3.064-3.664,6.088-6.52,9.276-8.768c2.956-2.256,6.537-4.239,10.892-6.045
				l4.348-1.499c0.032-0.009,0.065-0.017,0.091-0.026l4.354-1.032c0.782-0.158,1.524-0.25,2.241-0.341l0.773-0.1
				c2.074-0.258,4.164-0.383,6.229-0.383c5.678,0,11.157,0.941,16.295,2.815c6.337,2.298,12.207,5.987,16.971,10.649
				c4.013,3.915,7.352,8.602,9.667,13.557l0.158,0.383c0.899,2.123,1.741,4.122,2.24,6.128c0.075,0.266,0.149,0.549,0.233,0.833
				c0.191,0.683,0.399,1.391,0.532,2.09l0.658,3.897c0.051,0.324,0.066,0.616,0.092,0.907l0.15,2.482
				c0.099,1.199,0.049,2.248,0.007,3.098l-0.007,0.325c-0.084,1.815-0.167,2.773-0.167,2.773c-0.059,0.623-0.574,1.115-1.208,1.14
				c-0.642,0.016-1.175-0.433-1.273-1.058l-0.407-2.681c-0.134-0.917-0.276-1.89-0.592-3.023l-0.508-2.006
				c-0.034-0.108-0.067-0.25-0.101-0.383c-0.05-0.2-0.101-0.408-0.166-0.616l-1.225-3.498c-0.184-0.491-0.433-1.024-0.691-1.573
				c-0.134-0.292-0.274-0.583-0.399-0.883c-0.625-1.474-1.516-2.956-2.456-4.53l-0.458-0.783c-2.523-3.855-5.829-7.453-9.544-10.351
				c-4.304-3.364-9.334-5.895-14.555-7.327c-5.604-1.557-11.791-1.815-17.77-0.75c-0.258,0.049-0.541,0.108-0.833,0.159
				c-0.5,0.091-0.966,0.174-1.424,0.291l-3.397,0.966l-3.305,1.283c-3.474,1.649-5.979,3.148-8.146,4.872
				c-2.306,1.716-4.554,3.922-6.894,6.778c-0.158,0.216-0.357,0.491-0.566,0.766c-0.791,1.058-1.54,2.065-2.148,3.165
				c-0.158,0.275-0.316,0.532-0.475,0.791c-0.275,0.45-0.533,0.875-0.748,1.308l-1.084,2.265c-0.291,0.55-0.5,1.116-0.716,1.715
				l-0.19,0.508c-0.085,0.25-0.185,0.524-0.293,0.792c-0.191,0.516-0.374,0.999-0.517,1.482l-0.632,2.39
				c-0.024,0.133-0.067,0.283-0.109,0.433c-0.058,0.234-0.124,0.467-0.166,0.7l-0.583,3.614l-0.159,2.422
				c-0.124,1.199-0.073,2.365-0.023,3.597c0.023,0.417,0.041,0.832,0.051,1.249c0,0.5,0.073,0.982,0.148,1.499
				c0.042,0.283,0.084,0.566,0.117,0.857c0.033,0.243,0.075,0.533,0.116,0.825c0.066,0.525,0.134,1.016,0.225,1.499l0.832,3.489
				l1.158,3.405c0.176,0.425,0.392,0.899,0.608,1.374c0.117,0.25,0.224,0.491,0.342,0.741c0.441,1.1,1.015,2.082,1.615,3.132
				c0.191,0.342,0.383,0.674,0.573,1.016c2.956,4.912,7.245,9.318,12.376,12.707c4.553,2.989,9.791,5.078,15.137,6.036
				c4.588,0.824,9.41,0.891,14.132,0.2l3.08-0.55c0.783-0.207,1.541-0.416,2.282-0.624l1.016-0.292
				c0.282-0.074,0.558-0.149,0.824-0.241l3.572-1.365c1.066-0.5,2.04-0.976,2.932-1.416l0.874-0.425
				c1.065-0.624,1.965-1.174,2.707-1.632c0.698-0.4,1.198-0.758,1.59-1.05l0.582-0.416
				C371.435,58.368,372.144,58.451,372.568,58.917"/>
			<path clip-path="url(#SVGID_16_)" fill="#4D1D5B" d="M356.838,47.51v0.008v0.008c-0.009,0.525-0.226,0.825-0.575,1.017
				c-0.217,0.158-0.499,0.308-0.849,0.5c-0.059,0.024-0.117,0.058-0.176,0.074c-0.199,0.067-0.416,0.166-0.683,0.283
				c-0.441,0.191-0.99,0.426-1.656,0.649c-1.508,0.508-3.973,1.116-7.203,1.116c-0.774,0-1.557-0.033-2.341-0.108
				c-0.424-0.009-0.782-0.083-1.1-0.149c-0.148-0.034-0.299-0.067-0.448-0.083c-0.033-0.009-0.067-0.009-0.091-0.018
				c-0.176-0.033-0.342-0.066-0.518-0.091c-0.333-0.051-0.708-0.109-1.091-0.218c-0.349-0.116-0.657-0.207-0.982-0.299
				c-0.691-0.191-1.474-0.417-2.24-0.783c-2.123-0.8-4.271-2.081-6.378-3.806c-0.208-0.183-0.375-0.316-0.542-0.449
				c-0.315-0.259-0.683-0.559-1.007-0.924l-1.308-1.333c-0.023-0.033-0.058-0.066-0.084-0.1c-0.165-0.217-0.341-0.434-0.516-0.65
				c-0.657-0.815-1.341-1.664-1.89-2.647c-1.549-2.48-2.631-5.054-3.173-7.594c-0.167-0.533-0.242-1.066-0.301-1.532
				c-0.024-0.183-0.048-0.366-0.082-0.549l-0.042-0.275c-0.092-0.616-0.2-1.249-0.184-1.94c-0.007-0.226-0.017-0.491-0.033-0.758
				c-0.025-0.408-0.041-0.825-0.041-1.232l0.142-2.057c0.35-2.947,1.041-5.554,2.082-7.811c0.142-0.366,0.357-0.75,0.55-1.099
				c0.107-0.184,0.207-0.367,0.308-0.559l0.433-0.833c0.017-0.041,0.042-0.083,0.075-0.133l0.508-0.732
				c0.142-0.2,0.258-0.383,0.374-0.558c0.209-0.316,0.425-0.649,0.684-0.966l1.115-1.332c1.8-1.932,3.456-3.331,5.104-4.321
				c3.489-2.207,6.82-3.015,9.002-3.306l1.433-0.174c0.049-0.009,0.107-0.009,0.167-0.017l1.939,0.017
				c0.615,0.007,1.132,0.449,1.232,1.057c0.092,0.599-0.259,1.182-0.841,1.373l-1.782,0.567c-0.375,0.175-0.8,0.358-1.274,0.541
				c-2.489,1.058-4.738,2.499-6.646,4.247c-1.091,0.941-2.164,2.157-3.396,3.855c-0.259,0.417-0.526,0.825-0.801,1.233
				c-0.107,0.158-0.208,0.366-0.316,0.574c-0.1,0.216-0.208,0.433-0.333,0.642l-0.316,0.558l-0.241,0.625
				c-0.075,0.2-0.175,0.424-0.275,0.641c-0.108,0.234-0.207,0.458-0.267,0.65c-0.007,0.033-0.016,0.058-0.024,0.084
				c-0.583,1.573-0.948,3.396-1.166,5.729c0,0.524-0.024,1.049-0.058,1.582c0.008,0.233,0.033,0.466,0.05,0.699
				c0.024,0.283,0.041,0.566,0.05,0.859c-0.009,0.382,0.059,0.75,0.125,1.141l0.051,0.282c0.033,0.167,0.058,0.358,0.082,0.55
				c0.042,0.3,0.083,0.591,0.158,0.8c0.025,0.066,0.042,0.133,0.059,0.2c0.325,1.69,1.024,3.456,2.19,5.554
				c0.316,0.616,0.699,1.157,1.106,1.723c0.184,0.25,0.359,0.509,0.533,0.759c0.351,0.391,0.684,0.782,0.999,1.191
				c0.143,0.183,0.317,0.341,0.517,0.523c0.167,0.159,0.334,0.316,0.492,0.483c1.507,1.449,2.997,2.564,4.429,3.314
				c0.042,0.016,0.084,0.041,0.126,0.066c0.407,0.275,0.865,0.482,1.365,0.698c0.341,0.15,0.675,0.301,1.008,0.467
				c0.141,0.066,0.341,0.125,0.533,0.192c0.183,0.058,0.365,0.116,0.549,0.183c0.183,0.059,0.358,0.125,0.542,0.2
				c0.174,0.074,0.35,0.142,0.458,0.158c0.058,0.008,0.108,0.017,0.157,0.033c2.707,0.75,5.13,0.907,6.688,0.907
				c0.449,0,0.874-0.008,1.257-0.032c0.424-0.043,0.842-0.084,1.216-0.118c0.44-0.049,0.824-0.091,1.132-0.107
				c0.384-0.066,0.616-0.116,0.691-0.134c0.101-0.024,0.2-0.042,0.308-0.042c0.691,0,1.25,0.566,1.25,1.249V47.51z"/>
		</g>
	</g>
	<path fill="#4D1D5B" d="M420.006-4.629c0,3.444-0.903,6.049-2.709,7.813c-1.808,1.764-4.461,2.646-7.961,2.646h-4.914v-20.525
		h5.547c3.274,0,5.766,0.856,7.476,2.569C419.153-10.413,420.006-7.914,420.006-4.629 M418.447-4.573
		c0-2.939-0.746-5.15-2.238-6.633c-1.493-1.484-3.686-2.226-6.578-2.226h-3.776V4.566h3.397
		C415.382,4.566,418.447,1.521,418.447-4.573"/>
	<rect x="425.009" y="-14.695" fill="#4D1D5B" width="1.434" height="20.524"/>
	<path fill="#4D1D5B" d="M440.614-4.517h7.566v9.363c-1.984,0.843-4.216,1.263-6.695,1.263c-3.239,0-5.722-0.914-7.448-2.744
		c-1.727-1.829-2.59-4.42-2.59-7.771c0-2.087,0.428-3.938,1.285-5.552c0.855-1.615,2.082-2.861,3.678-3.742
		c1.595-0.879,3.427-1.319,5.496-1.319c2.236,0,4.244,0.413,6.022,1.235l-0.575,1.292c-1.778-0.823-3.623-1.236-5.531-1.236
		c-2.705,0-4.852,0.836-6.437,2.506c-1.588,1.671-2.381,3.923-2.381,6.76c0,3.088,0.755,5.413,2.261,6.97
		c1.507,1.559,3.721,2.337,6.641,2.337c1.891,0,3.496-0.266,4.815-0.801v-7.215h-6.107V-4.517z"/>
	<polygon fill="#4D1D5B" points="464.838,5.83 453.621,5.83 453.621,-14.695 464.838,-14.695 464.838,-13.375 455.053,-13.375 
		455.053,-5.612 464.292,-5.612 464.292,-4.292 455.053,-4.292 455.053,4.51 464.838,4.51 	"/>
	<path fill="#4D1D5B" d="M481.102,0.537c0,1.713-0.63,3.071-1.888,4.071c-1.26,1.002-2.932,1.502-5.02,1.502
		c-2.508,0-4.432-0.275-5.771-0.827V3.851c1.48,0.627,3.366,0.94,5.658,0.94c1.685,0,3.021-0.386,4.009-1.159
		c0.986-0.771,1.48-1.785,1.48-3.039c0-0.777-0.164-1.42-0.49-1.931c-0.329-0.51-0.862-0.976-1.603-1.397
		c-0.738-0.422-1.823-0.875-3.256-1.362c-2.097-0.721-3.545-1.5-4.346-2.337c-0.8-0.837-1.2-1.954-1.2-3.348
		c0-1.535,0.602-2.787,1.805-3.755c1.203-0.969,2.75-1.454,4.64-1.454c1.928,0,3.739,0.365,5.434,1.095l-0.52,1.235
		c-1.704-0.711-3.333-1.067-4.886-1.067c-1.517,0-2.723,0.352-3.622,1.053s-1.348,1.656-1.348,2.864
		c0,0.758,0.137,1.381,0.413,1.868c0.277,0.487,0.729,0.923,1.354,1.312c0.628,0.388,1.704,0.854,3.229,1.396
		c1.602,0.552,2.804,1.088,3.608,1.607c0.805,0.52,1.393,1.11,1.762,1.769C480.917-1.196,481.102-0.399,481.102,0.537"/>
	<polygon fill="#4D1D5B" points="491.077,5.83 489.63,5.83 489.63,-13.347 482.962,-13.347 482.962,-14.695 497.746,-14.695 
		497.746,-13.347 491.077,-13.347 	"/>
	<rect x="501.078" y="-14.695" fill="#4D1D5B" width="1.434" height="20.524"/>
	<path fill="#4D1D5B" d="M520.74-14.695h1.56L514.62,5.83h-1.265l-7.65-20.524h1.529L512.4-0.727
		c0.787,2.106,1.316,3.688,1.588,4.746c0.188-0.702,0.556-1.792,1.109-3.271L520.74-14.695z"/>
	<polygon fill="#4D1D5B" points="536.709,5.83 525.492,5.83 525.492,-14.695 536.709,-14.695 536.709,-13.375 526.923,-13.375 
		526.923,-5.612 536.162,-5.612 536.162,-4.292 526.923,-4.292 526.923,4.51 536.709,4.51 	"/>
	<polygon fill="#4D1D5B" points="419.29,34.993 417.844,34.993 417.844,24.899 405.854,24.899 405.854,34.993 404.423,34.993 
		404.423,14.468 405.854,14.468 405.854,23.58 417.844,23.58 417.844,14.468 419.29,14.468 	"/>
	<polygon fill="#4D1D5B" points="436.607,34.993 425.389,34.993 425.389,14.468 436.607,14.468 436.607,15.788 426.821,15.788 
		426.821,23.552 436.058,23.552 436.058,24.871 426.821,24.871 426.821,33.673 436.607,33.673 	"/>
	<path fill="#4D1D5B" d="M451.424,27.75h-8.34l-2.863,7.243h-1.587l8.255-20.608h0.913l8.086,20.608h-1.615L451.424,27.75z
		 M443.604,26.458h7.342l-2.792-7.399c-0.234-0.58-0.516-1.385-0.843-2.415c-0.253,0.898-0.529,1.713-0.829,2.443L443.604,26.458z"
		/>
	<polygon fill="#4D1D5B" points="459.083,34.993 459.083,14.468 460.515,14.468 460.515,33.646 470.3,33.646 470.3,34.993 	"/>
	<polygon fill="#4D1D5B" points="479.474,34.993 478.028,34.993 478.028,15.816 471.359,15.816 471.359,14.468 486.143,14.468 
		486.143,15.816 479.474,15.816 	"/>
	<polygon fill="#4D1D5B" points="504.343,34.993 502.897,34.993 502.897,24.899 490.908,24.899 490.908,34.993 489.476,34.993 
		489.476,14.468 490.908,14.468 490.908,23.58 502.897,23.58 502.897,14.468 504.343,14.468 	"/>
	<polygon fill="#4D1D5B" points="405.854,64.157 404.422,64.157 404.422,43.633 415.668,43.633 415.668,44.952 405.854,44.952 
		405.854,53.655 415.121,53.655 415.121,54.989 405.854,54.989 	"/>
	<path fill="#4D1D5B" d="M436.396,53.866c0,3.258-0.813,5.834-2.443,7.729c-1.628,1.896-3.874,2.843-6.739,2.843
		c-2.854,0-5.095-0.947-6.724-2.843c-1.628-1.895-2.442-4.479-2.442-7.757c0-3.266,0.821-5.836,2.464-7.714
		c1.643-1.877,3.887-2.814,6.73-2.814c2.864,0,5.107,0.943,6.726,2.828C435.585,48.024,436.396,50.601,436.396,53.866
		 M419.605,53.866c0,2.939,0.655,5.211,1.966,6.816s3.191,2.408,5.643,2.408c2.473,0,4.36-0.796,5.665-2.388
		c1.307-1.591,1.959-3.87,1.959-6.837c0-2.958-0.652-5.225-1.959-6.802c-1.305-1.577-3.184-2.365-5.637-2.365
		c-2.442,0-4.325,0.795-5.649,2.387C420.267,48.677,419.605,50.937,419.605,53.866"/>
	<path fill="#4D1D5B" d="M456.493,43.632v13.281c0,2.358-0.684,4.203-2.05,5.531c-1.367,1.329-3.271,1.993-5.714,1.993
		c-2.378,0-4.233-0.667-5.566-2c-1.335-1.334-2.001-3.193-2.001-5.581V43.632h1.445v13.281c0,1.974,0.549,3.512,1.644,4.611
		s2.645,1.65,4.646,1.65c1.956,0,3.472-0.541,4.549-1.621c1.075-1.082,1.614-2.581,1.614-4.5V43.632H456.493z"/>
	<path fill="#4D1D5B" d="M477.291,64.157h-1.445l-12.158-18.223h-0.113c0.113,2.172,0.169,3.81,0.169,4.914v13.309h-1.375V43.633
		h1.432l12.144,18.193h0.084c-0.084-1.684-0.127-3.285-0.127-4.801V43.633h1.391V64.157z"/>
	<path fill="#4D1D5B" d="M498.973,53.698c0,3.444-0.903,6.049-2.709,7.813c-1.807,1.764-4.46,2.646-7.961,2.646h-4.913V43.632h5.546
		c3.274,0,5.767,0.856,7.476,2.569C498.12,47.914,498.973,50.414,498.973,53.698 M497.416,53.755c0-2.939-0.747-5.15-2.239-6.634
		c-1.493-1.483-3.686-2.225-6.578-2.225h-3.776v17.998h3.397C494.349,62.895,497.416,59.847,497.416,53.755"/>
	<path fill="#4D1D5B" d="M513.861,56.913h-8.339l-2.864,7.244h-1.586l8.255-20.609h0.912l8.087,20.609h-1.615L513.861,56.913z
		 M506.042,55.622h7.343l-2.794-7.398c-0.234-0.58-0.516-1.386-0.843-2.415c-0.252,0.898-0.529,1.713-0.828,2.443L506.042,55.622z"
		/>
	<polygon fill="#4D1D5B" points="526.869,64.157 525.422,64.157 525.422,44.98 518.753,44.98 518.753,43.633 533.537,43.633 
		533.537,44.98 526.869,44.98 	"/>
	<rect x="536.871" y="43.632" fill="#4D1D5B" width="1.433" height="20.525"/>
	<path fill="#4D1D5B" d="M561.656,53.866c0,3.258-0.813,5.834-2.442,7.729c-1.629,1.896-3.875,2.843-6.739,2.843
		c-2.854,0-5.095-0.947-6.725-2.843c-1.628-1.895-2.441-4.479-2.441-7.757c0-3.266,0.821-5.836,2.463-7.714
		c1.644-1.877,3.887-2.814,6.731-2.814c2.864,0,5.106,0.943,6.725,2.828C560.846,48.024,561.656,50.601,561.656,53.866
		 M544.865,53.866c0,2.939,0.656,5.211,1.966,6.816c1.311,1.605,3.191,2.408,5.644,2.408c2.472,0,4.359-0.796,5.665-2.388
		c1.306-1.591,1.958-3.87,1.958-6.837c0-2.958-0.652-5.225-1.958-6.802s-3.185-2.365-5.637-2.365c-2.442,0-4.326,0.795-5.65,2.387
		C545.528,48.677,544.865,50.937,544.865,53.866"/>
	<path fill="#4D1D5B" d="M581.583,64.157h-1.445L567.98,45.935h-0.112c0.112,2.172,0.168,3.81,0.168,4.914v13.309h-1.375V43.633
		h1.432l12.144,18.193h0.084c-0.084-1.684-0.127-3.285-0.127-4.801V43.633h1.391V64.157z"/>
</g>
<line fill="#666766" x1="246.665" y1="-23.187" x2="246.665" y2="74.863"/>
</svg>
